<?xml version="1.0" encoding="utf-8"?>
<!-- Generator: Adobe Illustrator 19.2.1, SVG Export Plug-In . SVG Version: 6.00 Build 0)  -->
<svg version="1.1" id="Layer_1" xmlns="http://www.w3.org/2000/svg" xmlns:xlink="http://www.w3.org/1999/xlink" x="0px" y="0px"
	 viewBox="0 0 72 72" enable-background="new 0 0 72 72" xml:space="preserve">
<path d="M32.3,39.3c3.8-1.8,6.4-5.7,6.4-10.1c0-6.2-5.1-11.3-11.3-11.3c-6.2,0-11.3,5.1-11.3,11.3c0,4.5,2.6,8.3,6.4,10.1
	c-5.7,2-9.8,7.5-9.8,13.9h2c0-7,5.7-12.7,12.7-12.7c7,0,12.7,5.7,12.7,12.7h2C42.1,46.8,38,41.3,32.3,39.3z M18.1,29.1
	c0-5.1,4.2-9.3,9.3-9.3c5.1,0,9.3,4.2,9.3,9.3c0,5.1-4.2,9.3-9.3,9.3C22.3,38.4,18.1,34.3,18.1,29.1z M52,14.9l-1.7,1
	c2.3,4,3.6,8.6,3.6,13.2s-1.2,9.2-3.6,13.2l1.7,1c2.5-4.3,3.8-9.2,3.8-14.2S54.5,19.3,52,14.9z M42.9,20.2c1.6,2.7,2.4,5.8,2.4,8.9
	c0,3.1-0.8,6.2-2.4,8.9l1.7,1c1.7-3,2.7-6.5,2.7-9.9c0-3.5-0.9-6.9-2.7-9.9L42.9,20.2z"/>
</svg>
