<?xml version="1.0" encoding="utf-8"?>
<!-- Generator: Adobe Illustrator 19.2.1, SVG Export Plug-In . SVG Version: 6.00 Build 0)  -->
<svg version="1.1" id="Layer_1" xmlns="http://www.w3.org/2000/svg" xmlns:xlink="http://www.w3.org/1999/xlink" x="0px" y="0px"
	 viewBox="0 0 64 64" enable-background="new 0 0 64 64" xml:space="preserve">
<path d="M49.1,14.4c-4.5-4.5-12-4.6-16.5,0c-2.8,2.8-3.9,6.7-3.2,10.4L11.1,45.6l6.8,6.8l20.9-18.3c0.7,0.1,1.4,0.2,2.1,0.2
	c3,0,6-1.1,8.3-3.4C53.7,26.3,53.7,18.9,49.1,14.4z M17.9,49.6l-4.1-4.1L30.1,27c0.6,1.4,1.4,2.7,2.6,3.8s2.4,2,3.8,2.6L17.9,49.6z
	 M34,29.5c-2.7-2.7-3.4-6.6-2.3-9.9l12.2,12.2C40.6,32.9,36.7,32.1,34,29.5z M47.7,29.5c-0.6,0.6-1.2,1-1.8,1.4L32.6,17.6
	c0.4-0.6,0.9-1.3,1.4-1.8c1.9-1.9,4.4-2.8,6.8-2.8c2.5,0,5,0.9,6.8,2.8C51.5,19.6,51.5,25.7,47.7,29.5z"/>
</svg>
