<?xml version="1.0" encoding="utf-8"?>
<!-- Generator: Adobe Illustrator 19.2.1, SVG Export Plug-In . SVG Version: 6.00 Build 0)  -->
<svg version="1.1" id="Layer_1" xmlns="http://www.w3.org/2000/svg" xmlns:xlink="http://www.w3.org/1999/xlink" x="0px" y="0px"
	 viewBox="0 0 130 130" enable-background="new 0 0 130 130" xml:space="preserve">
<path d="M89,15H41c-3.3,0-6,2.7-6,6v88c0,3.3,2.7,6,6,6h48c3.3,0,6-2.7,6-6V21C95,17.7,92.3,15,89,15z M93,109c0,2.2-1.8,4-4,4H41
	c-2.2,0-4-1.8-4-4V21c0-2.2,1.8-4,4-4h48c2.2,0,4,1.8,4,4V109z M40,99h50V31H40V99z M42,33h46v64h-3V87H65v2h18v8H47v-8h9v-2H45v10
	h-3V33z M65,101c-2.8,0-5,2.2-5,5s2.2,5,5,5s5-2.2,5-5S67.8,101,65,101z M65,109c-1.7,0-3-1.3-3-3s1.3-3,3-3s3,1.3,3,3
	S66.7,109,65,109z M53,26c1.1,0,2-0.9,2-2c0-1.1-0.9-2-2-2s-2,0.9-2,2C51,25.1,51.9,26,53,26z M72,23H58v2h14V23z M56,36h-3v2h3V36z
	 M85,36H59v2h24v10H47V38h3v-2h-5v14h40V36z M85,53H65v2h18v10H47V55h9v-2H45v14h40V53z M62,55v-2h-3v2H62z M56,72v-2h-3v2H56z
	 M85,70H59v2h24v10H47V72h3v-2h-5v14h40V70z M59,89h3v-2h-3V89z"/>
</svg>
