<?xml version="1.0" encoding="utf-8"?>
<!-- Generator: Adobe Illustrator 19.2.1, SVG Export Plug-In . SVG Version: 6.00 Build 0)  -->
<svg version="1.1" id="Layer_1" xmlns="http://www.w3.org/2000/svg" xmlns:xlink="http://www.w3.org/1999/xlink" x="0px" y="0px"
	 viewBox="0 0 42 42" enable-background="new 0 0 42 42" xml:space="preserve">
<path d="M31,15.4l-5.8,6.9l1.5,1.3l3.2-3.9V21c0,2.4-0.9,4.7-2.6,6.4c-3.5,3.5-9.2,3.5-12.7,0l-1.4,1.4c2.1,2.1,5,3.2,7.8,3.2
	s5.6-1.1,7.8-3.2C30.9,26.7,32,24,32,21v-1.2l3.2,3.9l1.5-1.3L31,15.4z M15.2,18.4L12,22.2V21c0-2.4,0.9-4.7,2.6-6.4
	c3.5-3.5,9.2-3.5,12.7,0l1.4-1.4c-4.3-4.3-11.3-4.3-15.6,0c-2,2.1-3.1,4.9-3.1,7.8v1.2l-3.2-3.9l-1.5,1.3l5.8,6.9l5.8-6.9L15.2,18.4
	z"/>
</svg>
