<?xml version="1.0" encoding="utf-8"?>
<!-- Generator: Adobe Illustrator 19.2.1, SVG Export Plug-In . SVG Version: 6.00 Build 0)  -->
<svg version="1.1" id="Layer_1" xmlns="http://www.w3.org/2000/svg" xmlns:xlink="http://www.w3.org/1999/xlink" x="0px" y="0px"
	 viewBox="0 0 130 130" enable-background="new 0 0 130 130" xml:space="preserve">
<path d="M115,93V33H15v60h41v7H41c-1.7,0-3,1.3-3,3s1.3,3,3,3h48c1.7,0,3-1.3,3-3s-1.3-3-3-3H74v-7H115z M89,102c0.6,0,1,0.4,1,1
	s-0.4,1-1,1H41c-0.6,0-1-0.4-1-1s0.4-1,1-1H89z M58,100v-7h14v7H58z M17,91V35h96v56H17z M40,38h-7v2h7V38z M46,38h-3v2h3V38z
	 M108,86h-8v2h10V38H49v2h59V86z M81,86H22V40h8v-2H20v50h61V86z M90,88h7v-2h-7V88z M84,88h3v-2h-3V88z M81,72H27v2h54V72z M103,79
	H61v2h42V79z"/>
</svg>
