<?xml version="1.0" encoding="utf-8"?>
<!-- Generator: Adobe Illustrator 19.2.1, SVG Export Plug-In . SVG Version: 6.00 Build 0)  -->
<svg version="1.1" id="Layer_1" xmlns="http://www.w3.org/2000/svg" xmlns:xlink="http://www.w3.org/1999/xlink" x="0px" y="0px"
	 viewBox="0 0 140 42" enable-background="new 0 0 140 42" xml:space="preserve">
<path d="M16.7,20.1H7.1v-7.4H5.3v16.6h1.9v-7.5h9.6v7.5h1.9V12.8h-1.9V20.1z M53.1,21.8L47,12.8h-1.9v16.6H47V15.9l6.1,8.9h0.1
	l6.1-8.9v13.5h1.9V12.8h-1.9L53.1,21.8z M67.7,21.9h9.1v-1.7h-9.1v-5.7h10.1v-1.7h-12v16.6H78v-1.7H67.7V21.9z M102.7,12.8h-2.4
	l-9.5,9.9v-9.9h-1.9v16.6h1.9v-4.5l3.5-3.6l6.4,8h2.4L95.6,20L102.7,12.8z M105.2,14.5h5.6v14.9h1.9V14.5h5.6v-1.7h-13.1V14.5z
	 M134.7,12.8l-5.9,14.3l-5.9-14.3h-2.1l7.1,16.7h1.7l7.1-16.7H134.7z M38.6,8.1c-3.4-2-7.8-0.8-9.8,2.6c-1.2,2.1-1.2,4.5-0.3,6.5
	l-7.3,14.8l5.3,3l9.2-13.8c2.2-0.2,4.3-1.5,5.5-3.5C43.2,14.5,42,10.1,38.6,8.1z M26,33l-2.6-1.5l6.2-12.5c0.5,0.6,1.1,1.2,1.9,1.6
	c0.7,0.4,1.5,0.7,2.3,0.8L26,33z M32.3,19.1c-1.7-1-2.7-2.8-2.7-4.7l8.2,4.7C36.1,20,34,20.1,32.3,19.1z M39.8,17.1
	c-0.2,0.3-0.4,0.6-0.7,0.9l-9.3-5.4c0.1-0.4,0.3-0.7,0.5-1c1-1.8,2.9-2.7,4.8-2.7c0.9,0,1.9,0.2,2.7,0.7
	C40.4,11.1,41.3,14.4,39.8,17.1z"/>
</svg>
