<?xml version="1.0" encoding="utf-8"?>
<!-- Generator: Adobe Illustrator 19.2.1, SVG Export Plug-In . SVG Version: 6.00 Build 0)  -->
<svg version="1.1" id="Layer_1" xmlns="http://www.w3.org/2000/svg" xmlns:xlink="http://www.w3.org/1999/xlink" x="0px" y="0px"
	 viewBox="0 0 36 36" enable-background="new 0 0 36 36" xml:space="preserve">
<polygon points="30.1,21.2 26.6,17 23.1,21.2 21.5,19.9 26.6,13.9 31.6,19.9 "/>
<path d="M18,27.6c-2.6,0-5-1-6.8-2.8l1.4-1.4c1.4,1.4,3.3,2.2,5.4,2.2s3.9-0.8,5.4-2.2c1.4-1.4,2.2-3.3,2.2-5.4v-2.9h2V18
	c0,2.6-1,5-2.8,6.8S20.6,27.6,18,27.6z"/>
<polygon points="9.4,22.1 4.4,16.1 5.9,14.8 9.4,19 12.9,14.8 14.5,16.1 "/>
<path d="M10.4,20.9h-2V18c0-2.6,1-5,2.8-6.8C13,9.4,15.4,8.4,18,8.4s5,1,6.8,2.8l-1.4,1.4c-1.4-1.4-3.3-2.2-5.4-2.2
	s-3.9,0.8-5.4,2.2c-1.4,1.4-2.2,3.3-2.2,5.4V20.9z"/>
</svg>
