<?xml version="1.0" encoding="utf-8"?>
<!-- Generator: Adobe Illustrator 19.2.1, SVG Export Plug-In . SVG Version: 6.00 Build 0)  -->
<svg version="1.1" id="Layer_1" xmlns="http://www.w3.org/2000/svg" xmlns:xlink="http://www.w3.org/1999/xlink" x="0px" y="0px"
	 viewBox="0 0 36 36" enable-background="new 0 0 36 36" xml:space="preserve">
<path d="M27,29c-2.4,0-3.2-3.4-4-10.9C22.2,10.2,21.4,9,21,9s-1.2,1.2-2,9.1C18.2,25.6,17.4,29,15,29s-3.2-3.4-4-10.9
	C10.2,10.2,9.4,9,9,9s-1.2,1.2-2,9.1l-2-0.2C5.8,10.4,6.6,7,9,7s3.2,3.4,4,10.9c0.8,7.9,1.6,9.1,2,9.1s1.2-1.2,2-9.1
	C17.8,10.4,18.6,7,21,7s3.2,3.4,4,10.9c0.8,7.9,1.6,9.1,2,9.1s1.2-1.2,2-9.1l2,0.2C30.2,25.6,29.4,29,27,29z"/>
<rect x="3" y="17" width="30" height="2"/>
</svg>
