<?xml version="1.0" encoding="utf-8"?>
<!-- Generator: Adobe Illustrator 19.2.1, SVG Export Plug-In . SVG Version: 6.00 Build 0)  -->
<svg version="1.1" id="Layer_1" xmlns="http://www.w3.org/2000/svg" xmlns:xlink="http://www.w3.org/1999/xlink" x="0px" y="0px"
	 viewBox="0 0 36 36" enable-background="new 0 0 36 36" xml:space="preserve">
<path d="M15,21c-3.9,0-7-3.1-7-7s3.1-7,7-7s7,3.1,7,7S18.9,21,15,21z M15,9c-2.8,0-5,2.2-5,5s2.2,5,5,5s5-2.2,5-5S17.8,9,15,9z"/>
<path d="M24,28h-2c0-3.9-3.1-7-7-7s-7,3.1-7,7H6c0-5,4-9,9-9C20,19,24,23,24,28z"/>
<rect x="27" y="9.3" transform="matrix(0.7071 -0.7071 0.7071 0.7071 -1.3473 23.754)" width="2" height="8.5"/>
<rect x="23.8" y="12.5" transform="matrix(0.7071 -0.7071 0.7071 0.7071 -1.3473 23.754)" width="8.5" height="2"/>
</svg>
